<svg xmlns="http://www.w3.org/2000/svg" fill="none" viewBox="0 0 624 367">
  <path fill="#EF9E81" d="M433.5 211.5a669.7 669.7 0 0 0 15.8-72c4-9.2 8.6-18.1 13.6-26.8 6.2-10.7 13.5-20.5 20.2-30.8a64 64 0 0 0 12.1-30.5c.5-8.7-1.4-18-7.2-24.8a29.9 29.9 0 0 0-25.8-9.5 53.7 53.7 0 0 0-28 12.8 311.5 311.5 0 0 0-64 73.8c-8.4-3.2-16.5-7.1-24.6-11A205.9 205.9 0 0 0 309.3 79c-22.5-5.9-47.9-8.1-70 .5-20 8-36.8 25.9-37 48.2a41.7 41.7 0 0 0 6.6 23.3 51.3 51.3 0 0 0-21.6 21.6 38.7 38.7 0 0 0-1.8 31.2 36 36 0 0 0 6 10 60 60 0 0 0-17.2 25c-2.9 9-1.2 18.3 3.6 26.4 1.4 2.3 3 4.4 4.8 6.5a30 30 0 0 0-8.4 29.3 54.7 54.7 0 0 0 21.4 29.4c7.4 5.8 15.4 11 23.6 15.7 4 2.5 8.4 5 12.7 7.2a93.7 93.7 0 0 0 24.7 8.2 45.4 45.4 0 0 0 20.1-2 49.8 49.8 0 0 0 11-5.7c9.4 2.1 18.8 3.4 28.3 3.2a87.2 87.2 0 0 0 54.8-21.7c17-14.5 29-33.7 38-53.8a483.2 483.2 0 0 0 24.6-69.9Z"/>
  <path fill="#C4674E" d="M183.9 274a454.7 454.7 0 0 0 66 35.1c7.6 3.1 15.4 5.8 23.5 7.4a61.8 61.8 0 0 0 23.3.7 38 38 0 0 0 13.8-4.7c2.4-1.5 4.5-3.5 6.4-5.7 1.7-1.9 3.5-4 4.7-6.2 2-3.6 3.1-7.6 3.5-11.7a29.8 29.8 0 0 0-14-29.9c-1.1-.6-2 1-1 1.6a26.7 26.7 0 0 1 13.4 25.8c-.2 4-1 8-2.7 11.7a43.6 43.6 0 0 1-9.5 11.6 29.5 29.5 0 0 1-12.2 5.2 57.1 57.1 0 0 1-22 .4 159.6 159.6 0 0 1-44.8-16.1c-14.6-7.1-28.8-15-42.5-23.6l-5-3.2c-1-.6-2 1-1 1.6Z"/>
  <path fill="#C4674E" d="M197.6 216.4a1856 1856 0 0 0 49.5 22.4c15.9 7 32 14 48.7 18.7 8 2.3 16.8 4.4 25.2 3 6.3-1.2 12-4.3 16.4-8.8a34.2 34.2 0 0 0 9-16.8c.9-3.7.6-7.5 0-11.2a37.5 37.5 0 0 0-22.4-27.9c-1-.4-1.5 1.4-.5 1.8a35.2 35.2 0 0 1 21.4 35 31 31 0 0 1-21.7 25.4 46 46 0 0 1-23.9-1.6 318 318 0 0 1-47.1-17.4c-16-7-32-14.2-47.9-21.5l-6-2.8c-.9-.4-1.8 1.2-.7 1.7Z"/>
  <path fill="#C4674E" d="M214.9 154c18.6 7.7 36.6 16.8 55 25 9 4 18.2 7.8 27.5 11.2a128 128 0 0 0 29.4 8 37 37 0 0 0 25.6-5.3 24.8 24.8 0 0 0 10.8-21.4 35 35 0 0 0-9.7-23.1 65.9 65.9 0 0 0-23-15.6c-7.3-3.3-14.8-6-22.2-8.8-7.3-2.8-14.4-5.7-21.5-9L280 112c-1-.6-2 1-1 1.6a536 536 0 0 0 42.8 17.7 90.8 90.8 0 0 1 24.9 13.2 39 39 0 0 1 14 20.6 25 25 0 0 1-5.8 23.3c-6 6-14.7 8.4-23 8.3-10-.2-20-3.4-29.3-6.6-9.3-3.2-18.4-6.8-27.4-10.7-18-7.9-35.5-16.7-53.5-24.4l-6.5-2.8c-1-.4-1.5 1.4-.3 1.9ZM289.5 350a33 33 0 0 0 .8-27.1c-1-2.5-2.4-5.8-5.2-6.7-1-.4-1.6 1.4-.5 1.8 1.3.3 2 1.6 2.6 2.7l1.7 3.8a31.3 31.3 0 0 1-1 24.5c-.6 1.1 1 2.1 1.6 1Z"/>
  <path fill="#C4674E" d="M319.5 184a44 44 0 0 1 13.4-30c1-.9-.4-2.2-1.3-1.4a46.1 46.1 0 0 0-14 31.4c0 1.2 1.9 1.2 1.9 0Z"/>
  <path fill="#C4674E" d="M330 156.4c4.2 1.2 8.3 2.6 12 4.7 3 1.7 5.9 4.2 6.5 7.8.6 3.6-1 7.2-3.6 9.5a16.8 16.8 0 0 1-10.3 4.1c-5 .4-10-1-14.9-2.4-1.1-.3-1.6 1.4-.5 1.7 8.5 2.5 18.7 4.7 26.3-1.5 3-2.4 5-6.2 4.9-10.1 0-4-2.4-7.3-5.5-9.5a33 33 0 0 0-6.2-3.2c-2.7-1.2-5.4-2.1-8.2-3-1-.2-1.5 1.6-.4 2ZM297 242.5a47 47 0 0 1 14.5-32.2c.8-.8-.5-2.2-1.4-1.4a49 49 0 0 0-15 33.6c0 1.2 1.9 1.2 2 0Z"/>
  <path fill="#C4674E" d="M308.4 213a61 61 0 0 1 12.8 5c3.3 1.8 6.4 4.5 7 8.5.5 3.7-1.2 7.6-4 10-3 2.9-7 4.1-11 4.4-5.5.4-10.8-1.1-16-2.6-1-.3-1.6 1.5-.5 1.8 9 2.6 20 5 28-1.5 3.2-2.6 5.3-6.6 5.3-10.8 0-4.4-2.6-7.8-6-10.2-2-1.5-4.3-2.5-6.6-3.5a73.4 73.4 0 0 0-8.5-3c-1.1-.3-1.6 1.4-.5 1.8ZM277.2 301.8a47 47 0 0 1 14.4-32.2c.9-.9-.4-2.2-1.3-1.4a49 49 0 0 0-15 33.6c0 1.2 1.8 1.2 1.9 0Z"/>
  <path fill="#C4674E" d="M288.6 272.1a61 61 0 0 1 12.7 5c3.3 1.9 6.4 4.6 7 8.6.5 3.7-1.2 7.6-4 10-3 2.9-7 4.1-11 4.4-5.5.4-10.8-1-16-2.6-1-.2-1.5 1.5-.4 1.8 9 2.7 19.8 5 27.9-1.5 3.2-2.5 5.3-6.6 5.3-10.8 0-4.3-2.5-7.8-6-10.2-2-1.5-4.3-2.5-6.5-3.5a73.7 73.7 0 0 0-8.6-3c-1-.3-1.6 1.5-.4 1.8ZM253.6 346.5c.2-9.1 4.2-18 10.8-24.3 1-.8-.4-2.1-1.3-1.3a37 37 0 0 0-11.4 25.6c0 1.2 1.9 1.2 1.9 0Z"/>
  <path fill="#C4674E" d="M262 324.3c3.2 1 6.5 2 9.4 3.7 2.5 1.4 4.8 3.4 5.3 6.4.4 2.8-1 5.7-3 7.6-2.3 2-5.4 3-8.3 3.1-4 .3-8-.8-11.8-2-1.2-.3-1.7 1.5-.6 1.8 7 2 15.3 3.8 21.4-1.2 2.5-2 4.1-5 4.1-8.3 0-3.3-2-6-4.6-8a37 37 0 0 0-11.6-4.9c-1-.4-1.5 1.4-.4 1.8Z"/>
  <path fill="#FFD62A" d="m485.8 267.9-6-21-5.7 21-20.3 6.7 20.3 6.8 5.6 22.8 6.4-22.6 19.6-7-19.9-6.7ZM147.9 106.3l-6-20.5-5.6 20.5-19.8 6.6 19.8 6.6 5.6 22.3 6.3-22.1 19.2-6.8-19.5-6.6ZM525.4 213.9l-3.7-12.7-3.4 12.7-12.2 4 12.2 4 3.4 13.8 3.9-13.6 11.8-4.2-12-4ZM104.8 174.5l-3.6-12.4-3.4 12.4-12 4 12 4 3.4 13.4 3.7-13.4 11.6-4-11.7-4ZM337.1 15.4l-3-10.2-2.7 10.2-9.9 3.3 9.9 3.3 2.8 11.1 3-11 9.6-3.4-9.7-3.3ZM144.9 331.5l-3-10.2-2.8 10.2-9.8 3.3 9.8 3.3 2.8 11 3.1-10.9 9.6-3.4-9.7-3.3Z"/>
</svg>